<?xml version="1.0" encoding="utf-8" standalone="no"?>
<svg version="1.1" viewBox="0 0 86 86" xmlns="http://www.w3.org/2000/svg">
  <defs>
    <linearGradient id="gradient" x1="12.8" y1="12.8" x2="85.2" y2="85.2" gradientUnits="userSpaceOnUse">
      <stop offset="0" style="stop-color:#ffb757;stop-opacity:1"/>
      <stop offset="1" style="stop-color:#e36c34;stop-opacity:1"/>
    </linearGradient>
  </defs>
  <path style="fill:url(#gradient)" d="M 85.59 43.08 c 0 -23.63 -18.98 -42.78 -42.65 -42.78 C 19.27 0.3 0.19 19.37 0.19 43 c 0 23.63 19.28 42.7 42.95 42.7 c 0.64 0 41.42 0 41.42 0 c 0.79 0 1.03 -0.48 1.03 -1.27 C 85.59 84.43 85.59 43.72 85.59 43.08 z"/>
  <circle style="opacity:0.33;fill:#ffffff" cx="43" cy="43" r="31"/>
  <path style="fill:#000000" d="M 43 6.53 C 22.74 6.53 6.26 22.81 6.26 43 c 0 20.2 16.49 36.67 36.74 36.67 7.8 0 14.94 -2.44 20.89 -6.58 l 6.8 6.79 c 2.51 2.47 5.77 2.02 8.1 -0.27 2.85 -2.8 3.31 -6.31 0.98 -8.86 L 73 64 C 77.15 58.07 79.6 50.78 79.6 43 79.6 22.8 63.25 6.53 43 6.53 Z M 43 13 C 59.57 13 73 26.43 73 43 73 59.57 59.57 73 43 73 26.43 73 13 59.57 13 43 13 26.43 26.43 13 43 13 z"/>
  <g style="opacity:0.8">
    <g style="fill:#c92600">
      <rect transform="rotate(11)" y="29.71" x="27.74" height="16.32" width="5.6"/>
      <rect transform="rotate(11)" y="19.32" x="35.69" height="34" width="5.6"/>
      <rect transform="rotate(11)" y="12.38" x="43.64" height="44.8" width="5.6"/>
    </g>
    <g style="fill:#797979">
      <rect transform="rotate(11)" y="10.83" x="51.59" height="44.8" width="5.6"/>
      <rect transform="rotate(11)" y="14.69" x="59.54" height="34" width="5.6"/>
      <rect transform="rotate(11)" y="21.98" x="67.49" height="16.32" width="5.6"/>
    </g>
  </g>
</svg>
