<?xml version="1.0" encoding="utf-8" standalone="no"?>
<svg version="1.1" viewBox="0 0 86 86" xmlns="http://www.w3.org/2000/svg">
  <defs>
    <linearGradient id="gradient1" x1="12.8" y1="12.8" x2="85.2" y2="85.2" gradientUnits="userSpaceOnUse">
      <stop offset="0" style="stop-color:#29a5f9;stop-opacity:1"/>
      <stop offset="1" style="stop-color:#067dcc;stop-opacity:1"/>
    </linearGradient>
    <linearGradient id="gradient2" x1="21.8" y1="21.8" x2="64.2" y2="64.2" gradientUnits="userSpaceOnUse">
      <stop offset="0" style="stop-color:#9be5ff;stop-opacity:1"/>
      <stop offset="1" style="stop-color:#87d3ff;stop-opacity:1"/>
    </linearGradient>
  </defs>
  <path style="fill:url(#gradient1)" d="M 85.59 43.08 c 0 -23.63 -18.98 -42.78 -42.65 -42.78 C 19.27 0.3 0.19 19.37 0.19 43 c 0 23.63 19.28 42.7 42.95 42.7 c 0.64 0 41.42 0 41.42 0 c 0.79 0 1.03 -0.48 1.03 -1.27 C 85.59 84.43 85.59 43.72 85.59 43.08 z"/>
  <path style="fill:#000000" d="M 79.77 70.75 73 64 C 77.15 58.07 79.6 50.78 79.6 43 79.6 22.8 63.25 6.53 43 6.53 22.75 6.53 6.26 22.8 6.26 43 c 0 20.2 16.49 36.67 36.74 36.67 7.8 0 14.94 -2.44 20.89 -6.58 l 6.8 6.78 c 2.51 2.47 5.77 2.02 8.1 -0.27 2.85 -2.8 3.31 -6.31 0.98 -8.85 z"/>
  <circle style="fill:url(#gradient2)" cx="43" cy="43" r="30"/>
  <g style="fill:#0674bb">
    <path d="m 28.93 60.23 c -0.59 0 -1.07 -0.48 -1.07 -1.07 v -32.5 c 0 -2.24 1.89 -3.11 3.58 -1.61 l 20.34 17.91 c 0.44 0.39 0.48 1.06 0.1 1.51 -0.39 0.44 -1.07 0.48 -1.51 0.1 L 30 26.66 v 32.52 c 0 0.59 -0.48 1.07 -1.07 1.07 z"/>
    <path d="M 54.57 60.95 34.22 43.04 c -0.44 -0.39 -0.49 -1.06 -0.1 -1.51 0.39 -0.44 1.06 -0.49 1.51 -0.1 L 56 59.34 V 26.82 c 0 -0.59 0.48 -1.07 1.07 -1.07 0.59 0 1.07 0.48 1.07 1.07 v 32.5 c 0 1.95 -1.27 2.35 -1.88 2.35 0 0.01 -0.74 0.13 -1.69 -0.72 z"/>
  </g>
</svg>
